<?xml version="1.0" encoding="utf-8"?>
<!-- Generator: Adobe Illustrator 22.0.1, SVG Export Plug-In . SVG Version: 6.00 Build 0)  -->
<svg version="1.1" id="Livello_1" 
	xmlns="http://www.w3.org/2000/svg" 
	xmlns:xlink="http://www.w3.org/1999/xlink" x="0px" y="0px" viewBox="0 0 1415.3 943.9" style="enable-background:new 0 0 1415.3 943.9;" xml:space="preserve">


	<rect id="contanier" stroke="#020203" x="105.4" y="49.2" class="container" width="1212.1" height="833.2"/>
	<rect id="rect" x="516.6" y="367.3" width="113" height="113"/>

	<text id="text1" transform="matrix(1 0 0 1 216.9341 669.0794)" class="title">
		AVERNA DESIGN
	</text>
	<text id="text2" transform="matrix(1 0 0 1 747.7451 744.1357)" class="subtile">Studio Di Progettazione</text>

	<path id="circle1" class="vertical light" d="M763.1,480.8c36.7,22.8,80.1,34.2,124,31.9c56.9-3,109.6-28.6,145.3-70.8c32.2-38.1,48-86.5,44.4-135.5"/>

	<polyline id="horizontal1" class="horizontal bold" stroke="#020203" points="792.5,306.4 795.2,306.4 806.3,306.4 1087.5,306.4 "/>
	<polyline id="horizontal2" class="horizontal bold" stroke="#020203" points="385.5,367.3 404.6,367.3 873.8,367.3 "/>
	<polyline id="horizontal3" class="vertical light" stroke="#020203" points="385.5,479.6 431.5,479.6 873.8,479.6 "/>

	<line id="vertical1" class="vertical light" stroke="#020203" x1="516.6" y1="215.6" x2="516.6" y2="488.2"/>
	<line id="vertical2" class="vertical light" stroke="#020203" x1="815.5" y1="519.5" x2="815.5" y2="260.9"/>
	<line id="vertical3" class="vertical light" stroke="#020203" x1="873.8" y1="541.5" x2="873.8" y2="367.3"/>
</svg>
